<?xml version="1.0" encoding="utf-8"?>
<!-- Generator: Adobe Illustrator 27.9.0, SVG Export Plug-In . SVG Version: 6.00 Build 0)  -->
<svg version="1.1" id="Capa_1" xmlns="http://www.w3.org/2000/svg" xmlns:xlink="http://www.w3.org/1999/xlink" x="0px" y="0px"
	 viewBox="0 0 32 32" style="enable-background:new 0 0 32 32;" xml:space="preserve">
<style type="text/css">
	.st0{fill-rule:evenodd;clip-rule:evenodd;fill:#FFC800;}
</style>
<g>
	<path class="st0" d="M16,9.7c0.8,0,1.6,0.2,2.4,0.5c2.4,1,3.9,3.3,3.9,5.8c0,3.5-2.8,6.3-6.3,6.3c-2.6,0-4.9-1.5-5.8-3.9
		c-1-2.4-0.4-5.1,1.4-6.9C12.7,10.3,14.4,9.7,16,9.7z M16,7.9c-8.3,0-14.9,7.2-15.2,7.5c-0.3,0.3-0.3,0.9,0,1.2
		c0.3,0.3,6.9,7.5,15.2,7.5c8.3,0,14.9-7.2,15.2-7.5c0.3-0.3,0.3-0.9,0-1.2C30.9,15.1,24.3,7.9,16,7.9z"/>
	<path class="st0" d="M16,11.5c-1.8,0-3.3,1-4.1,2.6c-0.7,1.6-0.5,3.5,0.6,4.8c0.9,1,2.1,1.6,3.5,1.6c0.4,0,0.8-0.1,1.2-0.2
		c1.7-0.5,3-1.9,3.3-3.6l0,0c-0.3,0.1-0.6,0.1-0.9,0.1c-1.5,0-2.7-1.2-2.7-2.7c0-0.9,0.4-1.7,1.1-2.2C17.4,11.7,16.7,11.5,16,11.5
		C16,11.5,16,11.5,16,11.5z"/>
</g>
</svg>
