<?xml version="1.0" encoding="utf-8"?>
<!-- Generator: Adobe Illustrator 27.9.0, SVG Export Plug-In . SVG Version: 6.00 Build 0)  -->
<svg version="1.1" id="Capa_1" xmlns="http://www.w3.org/2000/svg" xmlns:xlink="http://www.w3.org/1999/xlink" x="0px" y="0px"
	 viewBox="0 0 32 32" style="enable-background:new 0 0 32 32;" xml:space="preserve">
<style type="text/css">
	.st0{fill-rule:evenodd;clip-rule:evenodd;fill:#FFC800;}
</style>
<g>
	<path class="st0" d="M0.8,9.6v5.4h8.9V9.6H0.8z"/>
	<path class="st0" d="M0.8,16.8v5.5c1.1-1.2,2.7-1.9,4.5-1.9c1.7,0,3.3,0.6,4.4,1.9v-5.5H0.8z"/>
	<path class="st0" d="M1.7,0.8c-0.5,0-0.9,0.4-0.9,0.9v6.2h8.9V1.7c0-0.5-0.4-0.9-0.9-0.9H1.7z"/>
	<path class="st0" d="M11.6,19.1v7.7l3.8-3.9L11.6,19.1z"/>
	<path class="st0" d="M14.3,11.3l-2.7,2.8v2.4l5.1,5.1l3.8-4L14.3,11.3z"/>
	<path class="st0" d="M21,5.1c-0.2,0-0.5,0.1-0.7,0.2l-4.8,4.8l6.3,6.3l4.8-4.8c0.2-0.3,0.2-0.9,0-1.3l-5-5
		C21.5,5.2,21.3,5.1,21,5.1z"/>
	<path class="st0" d="M5.3,25.9c0.6,0,0.9,0.4,0.9,0.9c0,0.5-0.3,0.9-0.9,0.9c-0.5,0-0.9-0.4-0.9-0.9C4.4,26.3,4.8,25.9,5.3,25.9z
		 M5.3,22.3c-2.5,0-4.5,2-4.5,4.5c0,2.5,2,4.5,4.5,4.5c2.6,0,4.6-2,4.6-4.5C9.6,24.3,7.7,22.3,5.3,22.3z"/>
	<path class="st0" d="M15.2,25.7l-5.4,5.4h5.4V25.7z"/>
	<path class="st0" d="M18.7,22.3l-1.8,1.7v7.2h5.4v-8.9H18.7z"/>
	<path class="st0" d="M24,22.3v8.9h6.3c0.5,0,0.9-0.4,0.9-0.9v-7.1c0-0.5-0.4-0.9-0.9-0.9H24z"/>
</g>
</svg>
