<?xml version="1.0" encoding="utf-8"?>
<!-- Generator: Adobe Illustrator 27.9.0, SVG Export Plug-In . SVG Version: 6.00 Build 0)  -->
<svg version="1.1" id="Capa_1" xmlns="http://www.w3.org/2000/svg" xmlns:xlink="http://www.w3.org/1999/xlink" x="0px" y="0px"
	 viewBox="0 0 32 32" style="enable-background:new 0 0 32 32;" xml:space="preserve">
<style type="text/css">
	.st0{fill-rule:evenodd;clip-rule:evenodd;fill:#FFC800;}
</style>
<g>
	<path class="st0" d="M10.7,9.8C9.2,9.8,8,11,8,12.4c0,1.2,0.7,2.1,1.8,2.5v-2.5c0-0.5,0.4-0.9,0.9-0.9h2.4
		C12.7,10.4,11.8,9.8,10.7,9.8z"/>
	<path class="st0" d="M11.5,13.4v1.6c0.7-0.3,1.3-0.9,1.6-1.6H11.5z"/>
	<path class="st0" d="M18.6,1.5v4.7h4.7L18.6,1.5z"/>
	<path class="st0" d="M10.7,7.9c2.2,0,3.9,1.5,4.3,3.5h2.8c0.4,0.1,0.8,0.5,0.8,0.9v7c0,0.5-0.4,0.9-0.9,0.9h-7
		c-0.5,0-0.9-0.4-0.9-0.9v-2.8c-2-0.4-3.5-2.1-3.5-4.3C6.3,9.9,8.2,7.9,10.7,7.9z M14.1,22.2c0.5,0,0.9,0.4,0.9,0.9
		c0,0.6-0.4,0.9-0.9,0.9h-7c-0.5,0-0.9-0.4-0.9-0.9c0-0.5,0.4-0.9,0.9-0.9H14.1z M17.7,22.2c0.5,0,0.9,0.4,0.9,0.9
		c0,0.6-0.4,0.9-0.9,0.9c-0.5,0-0.9-0.4-0.9-0.9C16.8,22.6,17.2,22.2,17.7,22.2z M17.7,25.7c0.5,0,0.9,0.4,0.9,0.9
		c0,0.5-0.4,0.9-0.9,0.9H7.1c-0.5,0-0.9-0.4-0.9-0.9c0-0.5,0.4-0.9,0.9-0.9H17.7z M1.8,1C1.3,1,0.9,1.4,0.9,1.9v28.2
		c0,0.6,0.4,0.9,0.9,0.9h21.1c0.5,0,0.9-0.3,0.9-0.9V8h-6.1c-0.5,0-0.9-0.4-0.9-0.9V1H1.8z"/>
	<path class="st0" d="M15,13.2c-0.4,1.8-1.7,3.2-3.4,3.5v1.9h5.3v-5.4H15z"/>
	<path class="st0" d="M25.7,22.7v1.8h5.4v-1.8H25.7z"/>
	<path class="st0" d="M25.7,9.9v11h5.4v-11H25.7z"/>
	<path class="st0" d="M25.7,26.1v2.2c0,1.4,1.2,2.6,2.7,2.6c1.5,0,2.7-1.2,2.7-2.6v-2.2H25.7z"/>
	<path class="st0" d="M28.4,3c-0.4,0-0.7,0.2-0.9,0.5L26,8.1h4.8l-1.6-4.6C29.1,3.1,28.8,3,28.4,3z"/>
</g>
</svg>
