<?xml version="1.0" encoding="utf-8"?>
<!-- Generator: Adobe Illustrator 27.9.0, SVG Export Plug-In . SVG Version: 6.00 Build 0)  -->
<svg version="1.1" id="Capa_1" xmlns="http://www.w3.org/2000/svg" xmlns:xlink="http://www.w3.org/1999/xlink" x="0px" y="0px"
	 viewBox="0 0 32 32" style="enable-background:new 0 0 32 32;" xml:space="preserve">
<style type="text/css">
	.st0{fill-rule:evenodd;clip-rule:evenodd;fill:#FFC800;}
</style>
<g>
	<path class="st0" d="M16.8,0.8v4.6h0.1c0.3-0.1,0.6-0.1,0.9-0.1c2,0,3.7,1.6,3.7,3.6c0,2-1.7,3.6-3.7,3.6c-0.2,0-0.6,0-0.9-0.1v2.8
		h4.2c0.8,0,1.2,0.9,0.6,1.5c-0.2,0.2-0.5,0.8-0.5,1.2c0,1,0.8,1.8,1.8,1.8c1,0,1.8-0.8,1.8-1.8c0-0.4-0.2-1-0.5-1.2
		c-0.5-0.6-0.1-1.5,0.7-1.5h6.1V5.3c0-2.5-2-4.5-4.5-4.5H16.8z"/>
	<path class="st0" d="M5.3,0.8c-2.5,0-4.5,2-4.5,4.5v9.9h4.6v-0.1c-0.2-0.3-0.2-0.6-0.2-1c0-2,1.6-3.6,3.6-3.6c2,0,3.6,1.6,3.6,3.6
		c0,0.3-0.1,0.6-0.1,1h2.8v-4.2c0-0.6,0.4-0.9,0.9-0.9c0.2,0,0.4,0.1,0.6,0.2c0.3,0.3,0.8,0.6,1.2,0.6c1,0,1.8-0.8,1.8-1.8
		c0-1-0.8-1.8-1.8-1.8c-0.4,0-0.9,0.2-1.2,0.5c-0.2,0.1-0.4,0.2-0.6,0.2c-0.5,0-0.9-0.4-0.9-0.9V0.8H5.3z"/>
	<path class="st0" d="M8.9,12.2c-1,0-1.8,0.8-1.8,1.8c0,0.4,0.2,0.9,0.5,1.2c0.5,0.6,0.1,1.5-0.7,1.5H0.8v9.9c0,2.6,2,4.6,4.5,4.6
		h9.9v-4.6h-0.1c-0.3,0.2-0.6,0.2-0.9,0.2c-2,0-3.7-1.7-3.7-3.7c0-2,1.7-3.5,3.7-3.5c0.2,0,0.6,0,0.9,0.1v-2.8h-4.2
		c-0.8,0-1.2-1-0.6-1.5c0.2-0.3,0.5-0.8,0.5-1.2C10.7,13,9.9,12.2,8.9,12.2z"/>
	<path class="st0" d="M26.6,16.8L26.6,16.8c0.2,0.4,0.2,0.7,0.2,1c0,2-1.6,3.6-3.6,3.6c-2,0-3.6-1.6-3.6-3.6c0-0.2,0.1-0.6,0.1-0.9
		h-2.8V21c0,0.6-0.4,0.9-0.9,0.9c-0.2,0-0.4-0.1-0.6-0.2c-0.3-0.3-0.8-0.5-1.2-0.5c-1,0-1.8,0.8-1.8,1.8c0,1,0.8,1.8,1.8,1.8
		c0.4,0,0.9-0.2,1.2-0.5c0.2-0.2,0.4-0.2,0.7-0.2c0.5,0,0.9,0.3,0.9,0.9v6.2h9.9c2.5,0,4.5-2,4.5-4.5v-9.9H26.6z"/>
</g>
</svg>
