<?xml version="1.0" encoding="utf-8"?>
<!-- Generator: Adobe Illustrator 27.9.0, SVG Export Plug-In . SVG Version: 6.00 Build 0)  -->
<svg version="1.1" id="Capa_1" xmlns="http://www.w3.org/2000/svg" xmlns:xlink="http://www.w3.org/1999/xlink" x="0px" y="0px"
	 viewBox="0 0 32 32" style="enable-background:new 0 0 32 32;" xml:space="preserve">
<style type="text/css">
	.st0{fill-rule:evenodd;clip-rule:evenodd;fill:#FFC800;}
</style>
<g>
	<path class="st0" d="M0.6,11.1v13.3l3.6-1.8V13L0.6,11.1z"/>
	<path class="st0" d="M16,15.1c-1.5,0-2.7,1.2-2.7,2.7c0,1.5,1.2,2.7,2.7,2.7s2.7-1.2,2.7-2.7C18.8,16.3,17.5,15.1,16,15.1z"/>
	<path class="st0" d="M31.4,11.1L27.8,13v9.7l3.6,1.8V11.1z"/>
	<path class="st0" d="M16,9.8c4.4,0,8.1,3.6,8.1,8.1s-3.6,8.1-8.1,8.1S8,22.3,8,17.9S11.6,9.8,16,9.8z M5.1,4.3
		c-0.5,0-0.9,0.4-0.9,1v0.9H3.3c-1.5,0-2.7,1.2-2.7,2.7v0.2l4.9,2.4c0.3,0.2,0.6,0.6,0.6,0.8v10.8c0,0.3-0.2,0.6-0.6,0.8l-4.9,2.4
		v0.3c0,1.5,1.2,2.8,2.7,2.8h25.4c1.5,0,2.7-1.2,2.7-2.8v-0.3L26.5,24c-0.3-0.2-0.5-0.5-0.5-0.8V12.4c0-0.2,0.2-0.6,0.5-0.8l4.9-2.4
		V8.9c0-1.5-1.2-2.7-2.7-2.7H6.1V5.2C6.1,4.7,5.7,4.3,5.1,4.3z"/>
	<path class="st0" d="M16,13.2c2.5,0,4.5,2,4.5,4.6c-0.1,2.5-2.1,4.5-4.5,4.5c-2.5,0-4.5-2-4.5-4.5C11.5,15.2,13.5,13.2,16,13.2z
		 M16,11.5c-3.4,0-6.2,2.8-6.2,6.3c0,3.4,2.8,6.2,6.2,6.2c3.5,0,6.3-2.8,6.3-6.2C22.3,14.3,19.5,11.5,16,11.5z"/>
	<path class="st0" d="M12.4,2.5c-0.3,0-0.6,0.2-0.8,0.5L11,4.3h10.1L20.4,3c-0.2-0.3-0.5-0.5-0.8-0.5H12.4z"/>
</g>
</svg>
