<?xml version="1.0" encoding="utf-8"?>
<!-- Generator: Adobe Illustrator 27.9.0, SVG Export Plug-In . SVG Version: 6.00 Build 0)  -->
<svg version="1.1" id="Capa_1" xmlns="http://www.w3.org/2000/svg" xmlns:xlink="http://www.w3.org/1999/xlink" x="0px" y="0px"
	 viewBox="0 0 32 32" style="enable-background:new 0 0 32 32;" xml:space="preserve">
<style type="text/css">
	.st0{fill-rule:evenodd;clip-rule:evenodd;fill:#FFC800;}
</style>
<g>
	<path class="st0" d="M12.8,7.2L9.7,9.8h4.2l3.1-2.7H12.8z"/>
	<path class="st0" d="M19.8,7.2l-3.1,2.7h4.2L24,7.2H19.8z"/>
	<path class="st0" d="M14.5,1.1l5.3,4.3H24l-5.2-4.3H14.5z"/>
	<path class="st0" d="M6.3,5.5c0.5,0,0.9,0.3,0.9,0.9c0,0.5-0.4,0.9-0.9,0.9c-0.5,0-0.9-0.4-0.9-0.9C5.5,5.8,5.8,5.5,6.3,5.5z
		 M3.7,1C2.2,1,1.1,2.2,1.1,3.6v6h5.9L11,6.3L4.7,1H3.7z"/>
	<path class="st0" d="M7.6,1.1l5.3,4.3h4.2l-5.3-4.3H7.6z"/>
	<path class="st0" d="M16,12.6c4.3,0,7.8,3.5,7.8,7.8c0,4.3-3.5,7.8-7.8,7.8c-4.3,0-7.8-3.5-7.8-7.8C8.1,16.1,11.6,12.6,16,12.6z
		 M1.1,11.6v16.8c0,1.5,1.2,2.7,2.7,2.7h24.5c1.5,0,2.7-1.2,2.7-2.7V11.6H1.1z"/>
	<path class="st0" d="M15.1,18.5v3.7l2.8-1.8L15.1,18.5z"/>
	<path class="st0" d="M21.4,1l5.3,4.5h4.2V3.6c0-1.5-1.2-2.7-2.7-2.7H21.4z"/>
	<path class="st0" d="M14.2,16.1c0.2,0,0.4,0,0.5,0.2l5.3,3.5c0.5,0.2,0.5,0.9,0,1.3l-5.3,3.5c-0.2,0.1-0.4,0.2-0.5,0.2
		c-0.5,0-0.9-0.3-0.9-0.9v-7C13.3,16.5,13.7,16.1,14.2,16.1z M16,14.2c-3.4,0-6.1,2.7-6.1,6.1c0,3.3,2.7,6,6.1,6c3.3,0,6-2.7,6-6
		C22,17,19.3,14.2,16,14.2z"/>
	<path class="st0" d="M26.7,7.2l-3.1,2.7h7.3V7.2H26.7z"/>
</g>
</svg>
