<?xml version="1.0" encoding="utf-8"?>
<!-- Generator: Adobe Illustrator 27.9.0, SVG Export Plug-In . SVG Version: 6.00 Build 0)  -->
<svg version="1.1" id="Capa_1" xmlns="http://www.w3.org/2000/svg" xmlns:xlink="http://www.w3.org/1999/xlink" x="0px" y="0px"
	 viewBox="0 0 32 32" style="enable-background:new 0 0 32 32;" xml:space="preserve">
<style type="text/css">
	.st0{fill-rule:evenodd;clip-rule:evenodd;fill:#FFC800;}
</style>
<g>
	<path class="st0" d="M25.3,18.7l1.4,4.2c0.1,0.4,0.6,0.7,1,0.7c0.4,0,0.8-0.2,1-0.7l1.3-4.2H25.3z"/>
	<path class="st0" d="M27.7,0.4c-1.4,0-2.6,1-2.6,2.3v1.4h5.1V2.7C30.2,1.5,29.1,0.4,27.7,0.4z"/>
	<path class="st0" d="M25.1,5.9v11h5.1v-11H25.1z"/>
	<path class="st0" d="M5.9,4.2c0.5,0,1,0.4,1,0.9c0,0.5-0.5,0.9-1,0.9c-0.9,0-1.4-1-0.7-1.5C5.4,4.3,5.6,4.2,5.9,4.2z M19.5,4.2
		c1.4,0,1.4,1.8,0,1.8H10c-1.4,0-1.4-1.8,0-1.8H19.5z M5.9,7.8c0.5,0,1.1,0.4,1.1,0.9c0,0.5-0.5,0.9-1,0.9c-0.9,0-1.4-1-0.7-1.6
		C5.4,7.9,5.6,7.8,5.9,7.8z M19.5,7.8c1.4,0,1.4,1.8,0,1.8H10c-1.4,0-1.4-1.8,0-1.8H19.5z M5.9,11.5c0.5,0,1,0.4,1,0.9
		c0,0.5-0.5,0.9-1,0.9c-0.9,0-1.4-1-0.7-1.6C5.3,11.6,5.6,11.5,5.9,11.5z M19.5,11.5c1.3,0.1,1.3,1.7,0,1.8H10
		c-1.3-0.1-1.3-1.8,0-1.8H19.5z M5.9,15.1c0.5,0,1.1,0.4,1.1,0.9c0,0.5-0.5,0.9-1,0.9c-0.9,0-1.4-1-0.7-1.6
		C5.4,15.2,5.6,15.1,5.9,15.1z M19.5,15.1c1.4,0,1.4,1.8,0,1.8H10c-1.4,0-1.4-1.8,0-1.8H19.5z M5.9,18.8c0.5,0,1,0.4,1,0.9
		c0,0.5-0.5,0.9-1,0.9c-0.9,0-1.4-1-0.7-1.6C5.4,18.9,5.6,18.8,5.9,18.8z M19.5,18.8c1.4,0,1.4,1.8,0,1.8H10c-1.4,0-1.4-1.8,0-1.8
		H19.5z M5.8,22.4c0.5,0,1.1,0.4,1.1,0.9c0,0.5-0.5,0.9-1,0.9c-0.9,0-1.4-1-0.7-1.6C5.3,22.5,5.6,22.4,5.8,22.4z M19.5,22.4
		c1.3,0.1,1.3,1.7,0,1.8H10c-1.3-0.1-1.3-1.7,0-1.8H19.5z M5.9,26.1c0.5,0,1,0.4,1,0.9c0,0.5-0.5,0.9-1,0.9c-0.9,0-1.4-1-0.7-1.6
		C5.4,26.2,5.6,26.1,5.9,26.1z M19.5,26.1c1.4,0,1.4,1.8,0,1.8H10c-1.4,0-1.4-1.8,0-1.8H19.5z M2.8,0.4c-0.6,0-1,0.4-1,0.9v26.9
		c0,1.9,1.7,3.4,3.7,3.4h19c-0.6-0.7-0.9-1.6-0.9-2.4V1.3c0-0.5-0.5-0.9-1-0.9H2.8z"/>
</g>
</svg>
