<?xml version="1.0" encoding="utf-8"?>
<!-- Generator: Adobe Illustrator 27.9.0, SVG Export Plug-In . SVG Version: 6.00 Build 0)  -->
<svg version="1.1" id="Capa_1" xmlns="http://www.w3.org/2000/svg" xmlns:xlink="http://www.w3.org/1999/xlink" x="0px" y="0px"
	 viewBox="0 0 32 32" style="enable-background:new 0 0 32 32;" xml:space="preserve">
<style type="text/css">
	.st0{fill-rule:evenodd;clip-rule:evenodd;fill:#FFC800;}
</style>
<g>
	<path class="st0" d="M16,6.3c0.5,0,0.9,0.4,0.9,0.9c0,0.6-0.4,0.9-0.9,0.9h-1.8c-0.5,0-0.9-0.4-0.9-0.9c0-0.5,0.4-0.9,0.9-0.9H16z
		 M21.3,6.3c0.5,0,0.9,0.4,0.9,0.9c0,0.6-0.4,0.9-0.9,0.9h-1.7c-0.6,0-0.9-0.4-0.9-0.9c0-0.5,0.3-0.9,0.9-0.9H21.3z M26.5,6.3
		c0.5,0,0.9,0.4,0.9,0.9c0,0.6-0.4,0.9-0.9,0.9h-1.8c-0.5,0-0.9-0.4-0.9-0.9c0-0.5,0.4-0.9,0.9-0.9H26.5z M3.6,2.7
		C2.1,2.7,1,3.9,1,5.4v4.4h30V5.4c0-1.5-1.2-2.7-2.7-2.7H3.6z"/>
	<path class="st0" d="M10.7,15.1c0.2,0,0.5,0.1,0.7,0.2c0.3,0.3,0.3,0.9,0,1.3l-2.8,2.8l2.8,2.9c0.3,0.3,0.3,0.9,0,1.3
		c-0.2,0.1-0.4,0.2-0.6,0.2c-0.2,0-0.5-0.1-0.7-0.2l-3.5-3.5c-0.3-0.3-0.3-0.9,0-1.3l3.5-3.5C10.2,15.2,10.4,15.1,10.7,15.1z
		 M21.2,15.3c0.2,0,0.5,0.1,0.7,0.2l3.5,3.5c0.2,0.2,0.2,0.7,0,1.2l-3.5,3.5c-0.2,0.1-0.4,0.2-0.6,0.2c-0.2,0-0.5-0.1-0.7-0.2
		c-0.2-0.3-0.2-0.9,0-1.3l2.9-2.8l-2.9-2.8c-0.2-0.3-0.2-0.9,0-1.3C20.7,15.3,21,15.3,21.2,15.3z M17.8,13.5c0.1,0,0.2,0,0.3,0
		c0.5,0.1,0.7,0.5,0.6,1l-3.6,10.5c-0.1,0.4-0.5,0.6-0.9,0.6c-0.1,0-0.1,0-0.2,0c-0.6-0.2-0.7-0.7-0.6-1.1l3.5-10.5
		C17.1,13.7,17.5,13.5,17.8,13.5z M1,11.6v15c0,1.5,1.2,2.7,2.6,2.7h24.7c1.5,0,2.7-1.2,2.7-2.7v-15H1z"/>
</g>
</svg>
