<?xml version="1.0" encoding="utf-8"?>
<!-- Generator: Adobe Illustrator 27.9.0, SVG Export Plug-In . SVG Version: 6.00 Build 0)  -->
<svg version="1.1" id="Capa_1" xmlns="http://www.w3.org/2000/svg" xmlns:xlink="http://www.w3.org/1999/xlink" x="0px" y="0px"
	 viewBox="0 0 32 32" style="enable-background:new 0 0 32 32;" xml:space="preserve">
<style type="text/css">
	.st0{fill-rule:evenodd;clip-rule:evenodd;fill:#FFC800;}
</style>
<g>
	<path class="st0" d="M18,9.9c1,0,2,0.4,2.8,1.1c1.6,1.6,1.6,4.1,0.1,5.7c-0.8,0.8-1.7,1.1-2.8,1.1c-1.1,0-2.1-0.4-2.9-1.1
		c-0.8-0.8-1.1-1.7-1.1-2.9c0-1.1,0.4-2,1.1-2.8C16,10.3,17,9.9,18,9.9z M7.5,20.1l4.5,4.5l-1.1,1.7l-5.2-5.1L7.5,20.1z M18.9,3.5
		c-0.1,0-0.3,0-0.4,0.1c-2.9,1.5-5.5,3.7-7.4,6.2c-1.5,1.7-2.6,3.9-3.6,6.1c-0.3,0.8-0.6,1.5-0.8,2.2l-3.3,1.9
		c-0.3,0.2-0.5,0.5-0.5,0.8c0,0.2,0.1,0.5,0.3,0.8l1.5,1.5c-1.1,1.3-2.6,3.6-2.6,5.1c0,0.6,0.2,1,0.4,1.1c0.2,0.2,0.5,0.4,1.1,0.4
		c1.4,0,3.9-1.6,5.1-2.6l1.5,1.5c0.2,0.2,0.5,0.3,0.7,0.3h0.1c0.3,0,0.6-0.2,0.8-0.5l1.9-3.2c0.8-0.2,1.5-0.5,2.3-0.8
		c2.2-0.9,4.3-2.1,6.1-3.6c2.5-2,4.7-4.5,6.2-7.3c0.2-0.4,0.1-0.8-0.2-1.1l-8.5-8.7C19.4,3.6,19.2,3.5,18.9,3.5z"/>
	<path class="st0" d="M28.2,0.9c-0.1,0-0.2,0-0.3,0c-2.4,0.2-4.7,0.8-6.8,1.6l8.5,8.6c0.8-2.2,1.4-4.5,1.6-6.8c0-1-0.4-1.8-0.9-2.5
		C29.7,1.2,29,0.9,28.2,0.9z"/>
	<path class="st0" d="M21.9,23.5L21.9,23.5c-1.7,1.1-3.3,2-5.1,2.7c-0.5,0.4-1.3,0.6-2,0.8c-0.2,1-0.5,1.9-0.8,2.7
		c-0.2,0.4-0.2,0.8,0.2,1.1c0.2,0.2,0.5,0.3,0.7,0.3c0.2,0,0.3,0,0.4-0.1c1.3-0.7,2.6-1.5,3.6-2.6C20.2,27.1,21.3,25.3,21.9,23.5z"
		/>
	<path class="st0" d="M8.4,10c-1.9,0.6-3.6,1.7-5,3.2c-1.1,1-1.9,2.3-2.6,3.6c-0.2,0.4-0.1,0.8,0.2,1.1c0.2,0.2,0.5,0.3,0.6,0.3
		c0.2,0,0.3,0,0.5-0.1c0.8-0.4,1.7-0.7,2.7-0.9c0.2-0.8,0.5-1.4,0.8-2C6.5,13.4,7.3,11.7,8.4,10z"/>
</g>
</svg>
