<?xml version="1.0" encoding="utf-8"?>
<!-- Generator: Adobe Illustrator 27.9.0, SVG Export Plug-In . SVG Version: 6.00 Build 0)  -->
<svg version="1.1" id="Capa_1" xmlns="http://www.w3.org/2000/svg" xmlns:xlink="http://www.w3.org/1999/xlink" x="0px" y="0px"
	 viewBox="0 0 32 32" style="enable-background:new 0 0 32 32;" xml:space="preserve">
<style type="text/css">
	.st0{fill-rule:evenodd;clip-rule:evenodd;fill:#FFC800;}
</style>
<g>
	<path class="st0" d="M3.1,12.9c0,0,0.1,0,0.1,0l1.5,0.7v4.6L3.2,19c0,0-0.1,0.1-0.2,0.1c-0.1,0-0.3-0.1-0.3-0.3v-5.6
		C2.8,13,2.9,12.9,3.1,12.9z M10.7,21.3l6.7,2c-0.7,1.1-1.9,1.7-3.1,1.7C12.3,25,10.6,23.4,10.7,21.3z M27.9,6.2c0.6,0,1,0.4,1,0.9
		v17.7c0,0.5-0.4,0.9-1,0.9c-0.5,0-0.9-0.4-0.9-0.9V7.1C27,6.5,27.4,6.2,27.9,6.2z M28,4.2c-1.3,0-2.5,0.9-2.8,2.1L5.8,11.9
		l-1.6-0.8c-0.3-0.2-0.7-0.2-1-0.2c-1.2,0-2.3,1-2.3,2.3v5.6c0,1.3,1.1,2.3,2.3,2.3c0.3,0,0.7-0.1,1-0.2L6,20l2.8,0.8
		c-0.4,3.4,2.2,6.3,5.5,6.3c2.2,0,4.1-1.3,5.1-3.2l5.8,1.7c0.4,1.2,1.5,2.2,2.8,2.2c1.6,0,3-1.3,3-2.9V7.2C30.9,5.5,29.6,4.2,28,4.2
		z"/>
</g>
</svg>
