<?xml version="1.0" encoding="utf-8"?>
<!-- Generator: Adobe Illustrator 27.9.0, SVG Export Plug-In . SVG Version: 6.00 Build 0)  -->
<svg version="1.1" id="Capa_1" xmlns="http://www.w3.org/2000/svg" xmlns:xlink="http://www.w3.org/1999/xlink" x="0px" y="0px"
	 viewBox="0 0 32 32" style="enable-background:new 0 0 32 32;" xml:space="preserve">
<style type="text/css">
	.st0{fill-rule:evenodd;clip-rule:evenodd;fill:#FFC800;}
</style>
<g>
	<path class="st0" d="M27.2,0.8c-0.2,0-0.5,0.1-0.7,0.3L22.6,5c-0.2,0.2-0.3,0.4-0.3,0.6l-0.5,3.1l-4.9,4.9
		c-0.4-0.2-0.8-0.3-1.2-0.3c-1.7,0-2.9,1.4-2.9,3c0,1.7,1.3,2.9,2.9,2.9c1.6,0,2.9-1.3,2.9-2.9c0-0.5-0.2-0.8-0.3-1.2l4.9-4.9
		l3.1-0.5c0.2,0,0.4-0.1,0.6-0.3l3.9-3.9c0.7-0.7,0.1-1.7-0.7-1.7c0,0-0.1,0-0.1,0l-2.2,0.3l0.3-2.2C28.2,1.3,27.7,0.8,27.2,0.8z"/>
	<path class="st0" d="M15.6,7.5c-4.9,0-8.9,4-8.9,9c0,4.9,3.9,8.8,8.9,8.8c4.9,0,9-3.9,9-8.8c0-1.4-0.3-2.6-0.8-3.8l-3.1,3.1
		c0,0.2,0.1,0.5,0.1,0.7c0,2.7-2.3,5-5,5c-2.8,0-5.1-2.3-5.1-5c0.2-2.8,2.3-5.1,5.1-5.1c0.2,0,0.5,0,0.6,0.2l3.2-3.2
		C18.3,7.8,17,7.5,15.6,7.5z"/>
	<path class="st0" d="M15.9,1.4c-8.4,0-15,6.7-15,14.9c0,8.1,6.7,14.9,14.9,14.9c8.2,0,14.9-6.7,14.9-14.9c0-2.2-0.5-4.4-1.4-6.3
		l-0.8,0.8c-0.5,0.5-1.1,0.8-1.7,0.8l-1.1,0.2c0.7,1.4,1,2.9,1,4.5c0,6-4.9,10.8-10.9,10.8S5,22.3,5,16.4c0-6,4.9-10.9,10.9-10.9
		c1.6,0,3.1,0.3,4.5,0.9l0.2-1.1c0.1-0.6,0.4-1.2,0.8-1.7l0.8-0.8C20.2,1.9,18.1,1.4,15.9,1.4z"/>
</g>
</svg>
