<?xml version="1.0" encoding="utf-8"?>
<!-- Generator: Adobe Illustrator 28.0.0, SVG Export Plug-In . SVG Version: 6.00 Build 0)  -->
<svg version="1.1" id="Capa_1" xmlns="http://www.w3.org/2000/svg" xmlns:xlink="http://www.w3.org/1999/xlink" x="0px" y="0px"
	 viewBox="0 0 300 300" style="enable-background:new 0 0 300 300;" xml:space="preserve">
<style type="text/css">
	.st0{fill:none;stroke:#261103;stroke-width:3.2561;stroke-linejoin:round;stroke-miterlimit:10;}
	.st1{fill-rule:evenodd;clip-rule:evenodd;fill:#FFC800;}
	.st2{fill-rule:evenodd;clip-rule:evenodd;fill:#261103;}
</style>
<path class="st0" d="M148.6,4.4c-42.8,0-77.5,34.7-77.5,77.5c0,31.3,18.8,59.6,47.7,71.6c9.6,4,19.6,5.9,29.6,5.9
	c20.2,0,40-7.9,54.8-22.7c22.1-22.2,28.8-55.5,16.8-84.4C208.1,23.3,179.9,4.4,148.6,4.4z"/>
<path class="st1" d="M148.6,94.6c-42.8,0-77.5,34.7-77.5,77.5c0,31.3,18.8,59.6,47.7,71.6c9.6,4,19.6,5.9,29.6,5.9
	c20.2,0,40-7.9,54.8-22.7c22.1-22.2,28.8-55.5,16.8-84.4C208.1,113.5,179.9,94.6,148.6,94.6z"/>
<path class="st2" d="M149.8,202.1c-25.9,0-46.8,20.9-46.8,46.8c0,18.9,11.4,36,28.8,43.3c5.8,2.4,11.9,3.5,17.9,3.5
	c12.2,0,24.1-4.7,33.2-13.8c13.4-13.4,17.4-33.5,10.1-51C185.8,213.4,168.7,202.1,149.8,202.1z"/>
</svg>
