<?xml version="1.0" encoding="utf-8"?>
<!-- Generator: Adobe Illustrator 28.0.0, SVG Export Plug-In . SVG Version: 6.00 Build 0)  -->
<svg version="1.1" id="Capa_1" xmlns="http://www.w3.org/2000/svg" xmlns:xlink="http://www.w3.org/1999/xlink" x="0px" y="0px"
	 viewBox="0 0 300 300" style="enable-background:new 0 0 300 300;" xml:space="preserve">
<style type="text/css">
	.st0{fill-rule:evenodd;clip-rule:evenodd;fill:#261103;}
</style>
<g>
	<path class="st0" d="M290.2,66.9c4.7,0,8.4,3.7,8.4,8.4c0,5.2-4.2,8.5-8.6,8.5c-2,0-4.2-0.7-5.9-2.5
		C278.7,75.9,282.5,66.9,290.2,66.9z M289.9,65.2c-2.5,0-5,1-7.1,3c-6.4,6.4-1.9,17.1,7.2,17.1c5.4,0,10-4.6,10-10.1
		C300.1,69.3,295.1,65.2,289.9,65.2z"/>
	<path class="st0" d="M234.3,66.9c4.7,0,8.5,3.7,8.5,8.4c-0.1,5.2-4.3,8.5-8.6,8.5c-2,0-4.2-0.7-5.9-2.5
		C222.9,75.9,226.7,66.9,234.3,66.9z M234.3,65.2c-2.5,0-5,1-7.1,3c-6.4,6.4-1.9,17.1,7.1,17.1c5.5,0,10.1-4.6,10.1-10.1
		C244.4,69.3,239.4,65.2,234.3,65.2z"/>
	<path class="st0" d="M178.5,66.9c4.7,0,8.4,3.7,8.4,8.4c0,5.2-4.2,8.5-8.5,8.5c-2,0-4.2-0.7-5.9-2.5
		C167.3,75.9,171,66.9,178.5,66.9z M178.5,65.2c-2.5,0-5,1-7.1,3c-6.5,6.4-1.9,17.1,7.1,17.1c5.5,0,10.1-4.6,10.1-10.1
		C188.7,69.3,183.7,65.2,178.5,65.2z"/>
	<path class="st0" d="M122.9,66.9c4.7,0,8.4,3.7,8.4,8.4c0,5.2-4.2,8.5-8.5,8.5c-2,0-4.2-0.7-6-2.5
		C111.5,75.9,115.3,66.9,122.9,66.9z M122.9,65.2c-2.5,0-5,1-7.1,3c-6.5,6.4-1.9,17.1,7.1,17.1c5.5,0,10.1-4.6,10.1-10.1
		C133,69.3,128,65.2,122.9,65.2z"/>
	<path class="st0" d="M67.1,66.9c4.7,0,8.4,3.7,8.4,8.4c0,5.2-4.2,8.5-8.5,8.5c-2,0-4.2-0.7-6-2.5C55.9,75.9,59.6,66.9,67.1,66.9z
		 M67.1,65.2c-2.5,0-5,1-7.2,3c-6.2,6.4-1.7,17.1,7.2,17.1c5.5,0,10.1-4.6,10.1-10.1C77.2,69.3,72.3,65.2,67.1,65.2z"/>
	<path class="st0" d="M11.5,66.9c4.7,0,8.4,3.7,8.4,8.4c0,5.2-4.2,8.5-8.6,8.5c-2,0-4.2-0.7-5.9-2.5C0.1,75.9,3.9,66.9,11.5,66.9z
		 M11.4,65.2c-2.5,0-5,1-7.1,3c-6.4,6.4-1.8,17.1,7.2,17.1c5.5,0,10-4.6,10-10.1C21.4,69.3,16.5,65.2,11.4,65.2z"/>
	<path class="st0" d="M290.2,117.2c4.7,0,8.4,3.7,8.4,8.4c0,5.2-4.2,8.5-8.6,8.5c-2,0-4.2-0.7-5.9-2.5
		C278.7,126.3,282.5,117.2,290.2,117.2z M289.9,115.5c-2.5,0-5,1-7.1,3c-6.4,6.4-1.9,17.1,7.2,17.1c5.4,0,10-4.6,10-10.1
		C300.1,119.6,295.1,115.5,289.9,115.5z"/>
	<path class="st0" d="M234.3,117.2c4.7,0,8.4,3.7,8.5,8.4c-0.1,5.2-4.3,8.5-8.6,8.5c-2,0-4.2-0.7-5.9-2.5
		C222.9,126.3,226.7,117.2,234.3,117.2z M234.3,115.5c-2.5,0-5,1-7.1,3c-6.4,6.4-1.9,17.1,7.1,17.1c5.5,0,10.1-4.6,10.1-10.1
		C244.4,119.6,239.4,115.5,234.3,115.5z"/>
	<path class="st0" d="M178.5,117.2c4.7,0,8.4,3.7,8.4,8.4c0,5.2-4.2,8.5-8.5,8.5c-2,0-4.2-0.7-5.9-2.5
		C167.3,126.3,171,117.2,178.5,117.2z M178.5,115.5c-2.5,0-5,1-7.1,3c-6.5,6.4-1.9,17.1,7.1,17.1c5.5,0,10.1-4.6,10.1-10.1
		C188.7,119.6,183.7,115.5,178.5,115.5z"/>
	<path class="st0" d="M122.9,117.2c4.7,0,8.4,3.7,8.4,8.4c0,5.2-4.2,8.5-8.5,8.5c-2,0-4.2-0.7-6-2.5
		C111.5,126.3,115.3,117.2,122.9,117.2z M122.9,115.5c-2.5,0-5,1-7.1,3c-6.5,6.4-1.9,17.1,7.1,17.1c5.5,0,10.1-4.6,10.1-10.1
		C133,119.6,128,115.5,122.9,115.5z"/>
	<path class="st0" d="M67.1,117.2c4.7,0,8.4,3.7,8.4,8.4c0,5.2-4.2,8.5-8.5,8.5c-2,0-4.2-0.7-6-2.5
		C55.9,126.3,59.6,117.2,67.1,117.2z M67.1,115.5c-2.5,0-5,1-7.2,3c-6.4,6.4-1.8,17.1,7.2,17.1c5.5,0,10.1-4.6,10.1-10.1
		C77.2,119.6,72.3,115.5,67.1,115.5z"/>
	<path class="st0" d="M11.5,117.2c4.7,0,8.4,3.7,8.4,8.4c0,5.2-4.2,8.5-8.6,8.5c-2,0-4.2-0.7-5.9-2.5
		C0.1,126.3,3.9,117.2,11.5,117.2z M11.4,115.5c-2.5,0-5,1-7.1,3c-6.4,6.4-1.8,17.1,7.2,17.1c5.5,0,10-4.6,10-10.1
		C21.4,119.6,16.5,115.5,11.4,115.5z"/>
	<path class="st0" d="M290.2,164.9c4.7,0,8.4,3.7,8.4,8.4c0,5.2-4.2,8.5-8.6,8.5c-2,0-4.2-0.7-5.9-2.5
		C278.7,174.1,282.5,164.9,290.2,164.9z M289.9,163.4c-2.5,0-5,1-7.1,3c-6.4,6.4-1.9,17.1,7.2,17.1c5.4,0,10-4.6,10-10.1
		C300.1,167.3,295.1,163.4,289.9,163.4z"/>
	<path class="st0" d="M234.3,164.9c4.7,0,8.5,3.7,8.5,8.4c-0.1,5.2-4.3,8.5-8.6,8.5c-2,0-4.2-0.7-5.9-2.5
		C222.9,174.1,226.7,164.9,234.3,164.9z M234.3,163.4c-2.5,0-5,1-7.1,3c-6.4,6.4-1.9,17.1,7.1,17.1c5.5,0,10.1-4.6,10.1-10.1
		C244.4,167.3,239.4,163.4,234.3,163.4z"/>
	<path class="st0" d="M178.5,164.9c4.7,0,8.4,3.7,8.4,8.4c0,5.2-4.2,8.5-8.5,8.5c-2,0-4.2-0.7-5.9-2.5
		C167.3,174.2,171,164.9,178.5,164.9z M178.5,163.4c-2.5,0-5,1-7.1,3c-6.5,6.4-1.9,17.1,7.1,17.1c5.5,0,10.1-4.6,10.1-10.1
		C188.7,167.3,183.7,163.4,178.5,163.4z"/>
	<path class="st0" d="M122.9,164.9c4.7,0,8.4,3.7,8.4,8.4c0,5.2-4.2,8.5-8.5,8.5c-2,0-4.2-0.7-6-2.5
		C111.5,174.2,115.3,164.9,122.9,164.9z M122.9,163.4c-2.5,0-5,1-7.1,3c-6.5,6.4-1.9,17.1,7.1,17.1c5.5,0,10.1-4.6,10.1-10.1
		C133,167.3,128,163.4,122.9,163.4z"/>
	<path class="st0" d="M67.1,164.9c4.7,0,8.4,3.7,8.4,8.4c0,5.2-4.2,8.5-8.5,8.5c-2,0-4.2-0.7-6-2.5
		C55.9,174.2,59.6,164.9,67.1,164.9z M67.1,163.4c-2.5,0-5,1-7.1,3c-6.4,6.4-1.8,17.1,7.2,17.1c5.5,0,10.1-4.6,10.1-10.1
		C77.2,167.3,72.3,163.4,67.1,163.4z"/>
	<path class="st0" d="M11.5,164.9c4.7,0,8.4,3.7,8.4,8.4c0,5.2-4.2,8.5-8.6,8.5c-2,0-4.2-0.7-5.9-2.5
		C0.1,174.1,3.9,164.9,11.5,164.9z M11.4,163.4c-2.5,0-5,1-7.1,3c-6.4,6.4-1.8,17.1,7.2,17.1c5.5,0,10-4.6,10-10.1
		C21.4,167.3,16.5,163.4,11.4,163.4z"/>
	<path class="st0" d="M290.2,215.4c4.7,0,8.4,3.7,8.4,8.4c0,5.2-4.2,8.5-8.6,8.5c-2,0-4.2-0.7-5.9-2.5
		C278.7,224.5,282.5,215.4,290.2,215.4z M289.9,213.9c-2.5,0-5,1-7.1,3c-6.4,6.4-1.9,17.1,7.2,17.1c5.4,0,10-4.6,10-10.1
		C300.1,217.8,295.1,213.9,289.9,213.9z"/>
	<path class="st0" d="M234.3,215.4c4.7,0,8.4,3.7,8.5,8.4c0,5.2-4.2,8.5-8.6,8.5c-2,0-4.2-0.7-5.9-2.5
		C222.9,224.5,226.7,215.4,234.3,215.4z M234.3,213.9c-2.5,0-5,1-7.1,3c-6.4,6.4-1.9,17.1,7.1,17.1c5.5,0,10.1-4.6,10.1-10.1
		C244.4,217.8,239.4,213.9,234.3,213.9z"/>
	<path class="st0" d="M178.5,215.4c4.7,0,8.4,3.7,8.4,8.4c0,5.2-4.2,8.5-8.5,8.5c-2,0-4.2-0.7-5.9-2.5
		C167.3,224.5,171,215.4,178.5,215.4z M178.5,213.9c-2.5,0-5,1-7.1,3c-6.5,6.4-1.9,17.1,7.1,17.1c5.5,0,10.1-4.6,10.1-10.1
		C188.7,217.8,183.7,213.9,178.5,213.9z"/>
	<path class="st0" d="M122.9,215.4c4.7,0,8.4,3.7,8.4,8.4c0,5.2-4.2,8.5-8.5,8.5c-2,0-4.2-0.7-6-2.5
		C111.5,224.5,115.3,215.4,122.9,215.4z M122.9,213.9c-2.5,0-5,1-7.1,3c-6.5,6.4-1.9,17.1,7.1,17.1c5.5,0,10.1-4.6,10.1-10.1
		C133,217.8,128,213.9,122.9,213.9z"/>
	<path class="st0" d="M67.1,215.4c4.7,0,8.4,3.7,8.4,8.4c0,5.2-4.2,8.5-8.5,8.5c-2,0-4.2-0.7-6-2.5
		C55.9,224.5,59.6,215.4,67.1,215.4z M67.1,213.9c-2.5,0-5,1-7.1,3c-6.4,6.4-1.8,17.1,7.2,17.1c5.5,0,10.1-4.6,10.1-10.1
		C77.2,217.8,72.3,213.9,67.1,213.9z"/>
	<path class="st0" d="M11.5,215.4c4.7,0,8.4,3.7,8.4,8.4c0,5.2-4.2,8.5-8.6,8.5c-2,0-4.2-0.7-5.9-2.5
		C0.1,224.5,3.9,215.4,11.5,215.4z M11.4,213.9c-2.5,0-5,1-7.1,3c-6.4,6.4-1.8,17.1,7.2,17.1c5.5,0,10-4.6,10-10.1
		C21.4,217.8,16.5,213.9,11.4,213.9z"/>
</g>
</svg>
