<?xml version="1.0" encoding="utf-8"?>
<!-- Generator: Adobe Illustrator 28.0.0, SVG Export Plug-In . SVG Version: 6.00 Build 0)  -->
<svg version="1.1" id="Capa_1" xmlns="http://www.w3.org/2000/svg" xmlns:xlink="http://www.w3.org/1999/xlink" x="0px" y="0px"
	 viewBox="0 0 300 300" style="enable-background:new 0 0 300 300;" xml:space="preserve">
<style type="text/css">
	.st0{fill-rule:evenodd;clip-rule:evenodd;fill:#FF0000;stroke:#261103;stroke-width:1.5067;stroke-miterlimit:10;}
</style>
<g>
	<path class="st0" d="M290.1,66.9c4.7,0,8.4,3.8,8.4,8.4c0,5.1-4.2,8.4-8.6,8.4c-2.1,0-4.2-0.8-5.9-2.4
		C278.5,75.9,282.4,66.9,290.1,66.9z M289.9,65.2c-2.4,0-5,0.9-7.1,3c-6.3,6.3-2,17.2,7.2,17.2c5.4,0,9.9-4.5,9.9-10.1
		C300,69.3,295,65.2,289.9,65.2z"/>
	<path class="st0" d="M234.2,66.9c4.7,0,8.6,3.8,8.6,8.4c-0.2,5.1-4.2,8.4-8.6,8.4c-2.1,0-4.2-0.8-5.9-2.4
		C222.9,75.9,226.6,66.9,234.2,66.9z M234.2,65.2c-2.4,0-5,0.9-7.1,3c-6.3,6.3-1.8,17.2,7.1,17.2c5.6,0,10.1-4.5,10.1-10.1
		C244.3,69.3,239.3,65.2,234.2,65.2z"/>
	<path class="st0" d="M178.6,66.9c4.7,0,8.4,3.8,8.4,8.4c0,5.1-4.2,8.4-8.4,8.4c-2.1,0-4.2-0.8-5.9-2.4
		C167.3,75.9,171,66.9,178.6,66.9z M178.6,65.2c-2.4,0-5,0.9-7.1,3c-6.5,6.3-2,17.2,7.1,17.2c5.6,0,10.1-4.5,10.1-10.1
		C188.7,69.3,183.7,65.2,178.6,65.2z"/>
	<path class="st0" d="M122.8,66.9c4.7,0,8.4,3.8,8.4,8.4c0,5.1-4.2,8.4-8.6,8.4c-2.1,0-4.2-0.8-5.9-2.4
		C111.5,75.9,115.3,66.9,122.8,66.9z M122.8,65.2c-2.4,0-5,0.9-7.1,3c-6.5,6.3-1.8,17.2,7.1,17.2c5.6,0,10.1-4.5,10.1-10.1
		C132.9,69.3,127.9,65.2,122.8,65.2z"/>
	<path class="st0" d="M67.2,66.9c4.7,0,8.4,3.8,8.4,8.4c0,5.1-4.2,8.4-8.6,8.4c-2.1,0-4.2-0.8-5.9-2.4
		C55.9,75.9,59.7,66.9,67.2,66.9z M67.2,65.2c-2.6,0-5,0.9-7.1,3c-6.3,6.3-1.8,17.2,7.2,17.2c5.6,0,10.1-4.5,10.1-10.1
		C77.3,69.3,72.3,65.2,67.2,65.2z"/>
	<path class="st0" d="M11.6,66.9c4.7,0,8.4,3.8,8.4,8.4c0,5.1-4.2,8.4-8.6,8.4c-2.1,0-4.2-0.8-5.9-2.4C0.2,75.9,3.9,66.9,11.6,66.9z
		 M11.5,65.2c-2.4,0-5,0.9-7.1,3c-6.3,6.3-1.8,17.2,7.2,17.2c5.6,0,9.9-4.5,9.9-10.1C21.6,69.3,16.6,65.2,11.5,65.2z"/>
	<path class="st0" d="M290.1,117.2c4.7,0,8.4,3.8,8.4,8.4c0,5.1-4.2,8.4-8.6,8.4c-2.1,0-4.2-0.8-5.9-2.4
		C278.5,126.2,282.4,117.2,290.1,117.2z M289.9,115.5c-2.4,0-5,0.9-7.1,3c-6.3,6.3-2,17.2,7.2,17.2c5.4,0,9.9-4.5,9.9-10.1
		C300,119.6,295,115.5,289.9,115.5z"/>
	<path class="st0" d="M234.2,117.2c4.7,0,8.4,3.8,8.6,8.4c-0.2,5.1-4.2,8.4-8.6,8.4c-2.1,0-4.2-0.8-5.9-2.4
		C222.9,126.2,226.6,117.2,234.2,117.2z M234.2,115.5c-2.4,0-5,0.9-7.1,3c-6.3,6.3-1.8,17.2,7.1,17.2c5.6,0,10.1-4.5,10.1-10.1
		C244.3,119.6,239.3,115.5,234.2,115.5z"/>
	<path class="st0" d="M178.6,117.2c4.7,0,8.4,3.8,8.4,8.4c0,5.1-4.2,8.4-8.4,8.4c-2.1,0-4.2-0.8-5.9-2.4
		C167.3,126.2,171,117.2,178.6,117.2z M178.6,115.5c-2.4,0-5,0.9-7.1,3c-6.5,6.3-2,17.2,7.1,17.2c5.6,0,10.1-4.5,10.1-10.1
		C188.7,119.6,183.7,115.5,178.6,115.5z"/>
	<path class="st0" d="M122.8,117.2c4.7,0,8.4,3.8,8.4,8.4c0,5.1-4.2,8.4-8.6,8.4c-2.1,0-4.2-0.8-5.9-2.4
		C111.5,126.2,115.3,117.2,122.8,117.2z M122.8,115.5c-2.4,0-5,0.9-7.1,3c-6.5,6.3-1.8,17.2,7.1,17.2c5.6,0,10.1-4.5,10.1-10.1
		C132.9,119.6,127.9,115.5,122.8,115.5z"/>
	<path class="st0" d="M67.2,117.2c4.7,0,8.4,3.8,8.4,8.4c0,5.1-4.2,8.4-8.6,8.4c-2.1,0-4.2-0.8-5.9-2.4
		C55.9,126.2,59.7,117.2,67.2,117.2z M67.2,115.5c-2.6,0-5,0.9-7.1,3c-6.3,6.3-1.8,17.2,7.2,17.2c5.6,0,10.1-4.5,10.1-10.1
		C77.3,119.6,72.3,115.5,67.2,115.5z"/>
	<path class="st0" d="M11.6,117.2c4.7,0,8.4,3.8,8.4,8.4c0,5.1-4.2,8.4-8.6,8.4c-2.1,0-4.2-0.8-5.9-2.4
		C0.2,126.2,3.9,117.2,11.6,117.2z M11.5,115.5c-2.4,0-5,0.9-7.1,3c-6.3,6.3-1.8,17.2,7.2,17.2c5.6,0,9.9-4.5,9.9-10.1
		C21.6,119.6,16.6,115.5,11.5,115.5z"/>
	<path class="st0" d="M290.1,165c4.7,0,8.4,3.8,8.4,8.4c0,5.1-4.2,8.4-8.6,8.4c-2.1,0-4.2-0.8-5.9-2.4
		C278.5,174,282.4,165,290.1,165z M289.9,163.3c-2.4,0-5,0.9-7.1,3c-6.3,6.3-2,17.2,7.2,17.2c5.4,0,9.9-4.5,9.9-10.1
		C300,167.4,295,163.3,289.9,163.3z"/>
	<path class="st0" d="M234.2,165c4.7,0,8.6,3.8,8.6,8.4c-0.2,5.1-4.2,8.4-8.6,8.4c-2.1,0-4.2-0.8-5.9-2.4
		C222.9,174,226.6,165,234.2,165z M234.2,163.3c-2.4,0-5,0.9-7.1,3c-6.3,6.3-1.8,17.2,7.1,17.2c5.6,0,10.1-4.5,10.1-10.1
		C244.3,167.4,239.3,163.3,234.2,163.3z"/>
	<path class="st0" d="M178.6,165c4.7,0,8.4,3.8,8.4,8.4c0,5.1-4.2,8.4-8.4,8.4c-2.1,0-4.2-0.8-5.9-2.4
		C167.3,174.2,171,165,178.6,165z M178.6,163.3c-2.4,0-5,0.9-7.1,3c-6.5,6.3-2,17.2,7.1,17.2c5.6,0,10.1-4.5,10.1-10.1
		C188.7,167.4,183.7,163.3,178.6,163.3z"/>
	<path class="st0" d="M122.8,165c4.7,0,8.4,3.8,8.4,8.4c0,5.1-4.2,8.4-8.6,8.4c-2.1,0-4.2-0.8-5.9-2.4
		C111.5,174.2,115.3,165,122.8,165z M122.8,163.3c-2.4,0-5,0.9-7.1,3c-6.5,6.3-1.8,17.2,7.1,17.2c5.6,0,10.1-4.5,10.1-10.1
		C132.9,167.4,127.9,163.3,122.8,163.3z"/>
	<path class="st0" d="M67.2,165c4.7,0,8.4,3.8,8.4,8.4c0,5.1-4.2,8.4-8.6,8.4c-2.1,0-4.2-0.8-5.9-2.4C55.9,174.2,59.7,165,67.2,165z
		 M67.2,163.3c-2.4,0-5,0.9-7.1,3c-6.3,6.3-1.8,17.2,7.2,17.2c5.6,0,10.1-4.5,10.1-10.1C77.3,167.4,72.3,163.3,67.2,163.3z"/>
	<path class="st0" d="M11.6,165c4.7,0,8.4,3.8,8.4,8.4c0,5.1-4.2,8.4-8.6,8.4c-2.1,0-4.2-0.8-5.9-2.4C0.2,174,3.9,165,11.6,165z
		 M11.5,163.3c-2.4,0-5,0.9-7.1,3c-6.3,6.3-1.8,17.2,7.2,17.2c5.6,0,9.9-4.5,9.9-10.1C21.6,167.4,16.6,163.3,11.5,163.3z"/>
	<path class="st0" d="M290.1,215.3c4.7,0,8.4,3.8,8.4,8.4c0,5.1-4.2,8.4-8.6,8.4c-2.1,0-4.2-0.8-5.9-2.4
		C278.5,224.5,282.4,215.3,290.1,215.3z M289.9,213.8c-2.4,0-5,0.9-7.1,3c-6.3,6.3-2,17.2,7.2,17.2c5.4,0,9.9-4.5,9.9-10.1
		C300,217.7,295,213.8,289.9,213.8z"/>
	<path class="st0" d="M234.2,215.3c4.7,0,8.4,3.8,8.6,8.4c0,5.1-4.2,8.4-8.6,8.4c-2.1,0-4.2-0.8-5.9-2.4
		C222.9,224.5,226.6,215.3,234.2,215.3z M234.2,213.8c-2.4,0-5,0.9-7.1,3c-6.3,6.3-1.8,17.2,7.1,17.2c5.6,0,10.1-4.5,10.1-10.1
		C244.3,217.7,239.3,213.8,234.2,213.8z"/>
	<path class="st0" d="M178.6,215.3c4.7,0,8.4,3.8,8.4,8.4c0,5.1-4.2,8.4-8.4,8.4c-2.1,0-4.2-0.8-5.9-2.4
		C167.3,224.5,171,215.3,178.6,215.3z M178.6,213.8c-2.4,0-5,0.9-7.1,3c-6.5,6.3-2,17.2,7.1,17.2c5.6,0,10.1-4.5,10.1-10.1
		C188.7,217.7,183.7,213.8,178.6,213.8z"/>
	<path class="st0" d="M122.8,215.3c4.7,0,8.4,3.8,8.4,8.4c0,5.1-4.2,8.4-8.6,8.4c-2.1,0-4.2-0.8-5.9-2.4
		C111.5,224.5,115.3,215.3,122.8,215.3z M122.8,213.8c-2.4,0-5,0.9-7.1,3c-6.5,6.3-1.8,17.2,7.1,17.2c5.6,0,10.1-4.5,10.1-10.1
		C132.9,217.7,127.9,213.8,122.8,213.8z"/>
	<path class="st0" d="M67.2,215.3c4.7,0,8.4,3.8,8.4,8.4c0,5.1-4.2,8.4-8.6,8.4c-2.1,0-4.2-0.8-5.9-2.4
		C55.9,224.5,59.7,215.3,67.2,215.3z M67.2,213.8c-2.4,0-5,0.9-7.1,3c-6.3,6.3-1.8,17.2,7.2,17.2c5.6,0,10.1-4.5,10.1-10.1
		C77.3,217.7,72.3,213.8,67.2,213.8z"/>
	<path class="st0" d="M11.6,215.3c4.7,0,8.4,3.8,8.4,8.4c0,5.1-4.2,8.4-8.6,8.4c-2.1,0-4.2-0.8-5.9-2.4
		C0.2,224.5,3.9,215.3,11.6,215.3z M11.5,213.8c-2.4,0-5,0.9-7.1,3c-6.3,6.3-1.8,17.2,7.2,17.2c5.6,0,9.9-4.5,9.9-10.1
		C21.6,217.7,16.6,213.8,11.5,213.8z"/>
</g>
</svg>
