<?xml version="1.0" encoding="utf-8"?>
<!-- Generator: Adobe Illustrator 27.9.0, SVG Export Plug-In . SVG Version: 6.00 Build 0)  -->
<svg version="1.1" id="Capa_1" xmlns="http://www.w3.org/2000/svg" xmlns:xlink="http://www.w3.org/1999/xlink" x="0px" y="0px"
	 viewBox="0 0 32 32" style="enable-background:new 0 0 32 32;" xml:space="preserve">
<style type="text/css">
	.st0{fill-rule:evenodd;clip-rule:evenodd;fill:#261103;}
</style>
<g>
	<path class="st0" d="M15.9,0.3c-2.1,0-3.8,1.6-3.8,3.6c0,2.1,1.7,3.7,3.8,3.7c2.1,0,3.8-1.6,3.8-3.7C19.7,1.9,18,0.3,15.9,0.3z"/>
	<path class="st0" d="M6.7,16.9c-2,0-3.7,1.7-3.7,3.6c0,2,1.7,3.7,3.7,3.7c2,0,3.7-1.7,3.7-3.7C10.4,18.6,8.7,16.9,6.7,16.9z"/>
	<path class="st0" d="M25.2,17c-1.9,0-3.6,1.7-3.6,3.7c0,1.9,1.7,3.6,3.6,3.6c2,0,3.7-1.7,3.7-3.6C28.9,18.7,27.2,17,25.2,17z"/>
	<path class="st0" d="M2.5,24.1c-1.3,1.2-2.2,2.8-2.2,4.8v1.9c0,0.5,0.4,0.9,0.9,0.9h11c0.6,0,1-0.4,1-0.9v-1.9
		c0-1.8-0.8-3.6-2.3-4.8c-1,1.3-2.5,2.1-4.3,2.1C5.1,26.2,3.5,25.4,2.5,24.1z"/>
	<path class="st0" d="M11.7,7.4c-1.3,1.2-2.3,2.9-2.3,4.8v2c0,0.5,0.4,0.9,0.9,0.9h11.1c0.6,0,1-0.4,1-0.9v-2c0-1.8-0.8-3.6-2.3-4.8
		c-1,1.3-2.6,2.1-4.3,2.1C14.3,9.5,12.7,8.6,11.7,7.4z"/>
	<path class="st0" d="M20.9,24.1c-1.3,1.2-2.2,2.9-2.2,4.8v1.9c0,0.5,0.4,0.9,0.9,0.9h11c0.6,0,1-0.4,1-0.9v-1.9
		c0-1.8-0.8-3.6-2.3-4.8c-1,1.3-2.5,2.1-4.3,2.1C23.5,26.2,21.9,25.4,20.9,24.1z"/>
	<path class="st0" d="M15,16.9v2.3l-3.2,3.2c0.6,0.4,0.8,0.6,1.3,1.3l2.8-2.7l2.8,2.7c0.4-0.5,0.8-0.9,1.3-1.3l-3.2-3.3v-2.3H15z"/>
</g>
</svg>
