<?xml version="1.0" encoding="utf-8"?>
<!-- Generator: Adobe Illustrator 27.9.0, SVG Export Plug-In . SVG Version: 6.00 Build 0)  -->
<svg version="1.1" id="Capa_1" xmlns="http://www.w3.org/2000/svg" xmlns:xlink="http://www.w3.org/1999/xlink" x="0px" y="0px"
	 viewBox="0 0 32 32" style="enable-background:new 0 0 32 32;" xml:space="preserve">
<style type="text/css">
	.st0{fill-rule:evenodd;clip-rule:evenodd;fill:#261103;}
</style>
<g>
	<path class="st0" d="M19.7,11.4c-1.4,0-2.8,1.3-2.8,2.7V15h7.4v-0.9c-0.1-1.4-1.3-2.7-2.9-2.7H19.7z"/>
	<path class="st0" d="M20.5,6c-1.1,0-1.8,0.8-1.8,1.8c0,0.9,0.8,1.8,1.8,1.8c1,0,1.8-0.8,1.8-1.8C22.3,6.8,21.4,6,20.5,6z"/>
	<path class="st0" d="M20.5,4c2,0,3.7,1.7,3.7,3.7c0,0.8-0.3,1.7-0.8,2.3c1.5,0.8,2.6,2.3,2.6,4.1v1.8H26c0,0.5-0.4,0.9-0.9,0.9H16
		c-0.5,0-0.9-0.4-0.9-0.9v-1.8c0-1.8,1.1-3.4,2.6-4.1c-0.5-0.6-0.8-1.3-0.8-2.3C16.8,5.7,18.5,4,20.5,4z M20.5,0.5
		c-6.1,0-10.9,4.9-10.9,10.9c0,2.7,0.9,5.1,2.6,7l-1.8,1.9C10,20.1,9.5,20,9.1,20c-0.7,0-1.3,0.3-1.9,0.8l-6,6
		c-1.9,1.9,0,4.7,2.1,4.7c0.6,0,1.2-0.2,1.8-0.8l6-6c0.8-0.8,0.9-2.1,0.5-3l1.8-1.8c1.9,1.5,4.4,2.6,7,2.6c6.1,0,10.9-4.9,10.9-10.9
		C31.5,5.3,26.6,0.5,20.5,0.5z"/>
</g>
</svg>
