<?xml version="1.0" encoding="utf-8"?>
<!-- Generator: Adobe Illustrator 27.9.0, SVG Export Plug-In . SVG Version: 6.00 Build 0)  -->
<svg version="1.1" id="Capa_1" xmlns="http://www.w3.org/2000/svg" xmlns:xlink="http://www.w3.org/1999/xlink" x="0px" y="0px"
	 viewBox="0 0 32 32" style="enable-background:new 0 0 32 32;" xml:space="preserve">
<style type="text/css">
	.st0{fill-rule:evenodd;clip-rule:evenodd;fill:#261103;}
</style>
<g>
	<path class="st0" d="M28.7,9.6c-1.2,0-1.3,1.8,0,1.8h1.8c0,0,0.1,0,0.1,0c1.2,0,1.1-1.8-0.1-1.8H28.7z"/>
	<path class="st0" d="M1.5,9.6c-1.2,0-1.3,1.8,0,1.8h1.8c0,0,0.1,0,0.1,0c1.1,0,1.1-1.8-0.1-1.8H1.5z"/>
	<path class="st0" d="M28.6,2.3c-0.2,0-0.3,0-0.5,0.2l-1.5,0.9c-0.9,0.5-0.4,1.7,0.4,1.7c0.1,0,0.3,0,0.5-0.1L29,4.1
		C29.9,3.5,29.4,2.3,28.6,2.3z"/>
	<path class="st0" d="M4.9,15.9c-0.1,0-0.3,0-0.4,0.1L2.9,17c-0.8,0.6-0.3,1.8,0.5,1.8c0.2,0,0.3,0,0.5-0.2l1.5-0.9
		C6.3,17.2,5.8,15.9,4.9,15.9z"/>
	<path class="st0" d="M27,15.9c-0.8,0-1.4,1.2-0.4,1.7l1.5,0.9c0.2,0.1,0.4,0.2,0.5,0.2c0.8,0,1.3-1.2,0.5-1.7l-1.6-1
		C27.3,15.9,27.1,15.9,27,15.9z"/>
	<path class="st0" d="M3.3,2.3C2.5,2.3,2,3.5,2.8,4.1L4.4,5c0.2,0.1,0.3,0.1,0.5,0.1c0.9,0,1.3-1.2,0.4-1.7L3.8,2.5
		C3.6,2.4,3.4,2.3,3.3,2.3z"/>
	<path class="st0" d="M15.1,8.3l-2.3,3.6l3.6,1.5c0.3,0.1,0.5,0.5,0.5,0.8v2.3l2.3-3.6l-3.5-1.5c-0.3-0.1-0.5-0.4-0.5-0.8V8.3z"/>
	<path class="st0" d="M11.5,24.2V26h2.7c1.2,0,1.3,1.8,0,1.8h-2.7v0.9c0,1.5,1.3,2.8,2.7,2.8h3.7c1.5,0,2.7-1.3,2.7-2.8v-0.9h-2.7
		c-1.2,0-1.3-1.8,0-1.8h2.7v-1.8H11.5z"/>
	<path class="st0" d="M16,4.3c0.5,0,0.9,0.4,0.9,0.9v4.9l4,1.4c0.2,0.2,0.4,0.3,0.5,0.6c0,0.2,0,0.5-0.3,0.8l-4.5,7.3
		c-0.2,0.3-0.4,0.4-0.7,0.4h-0.3c-0.4-0.1-0.6-0.4-0.6-0.8v-4.9l-4-1.5c-0.2-0.2-0.4-0.3-0.5-0.6c-0.1-0.2,0-0.5,0.1-0.7l4.5-7.4
		C15.5,4.5,15.8,4.3,16,4.3z M16,0.6c-0.7,0-1.5,0.1-2.2,0.2c-3.8,0.8-6.9,3.9-7.7,8c-0.8,3.8,0.8,6.4,2,8.1
		c2.3,3.7,0.9,3.7,1.7,5.4h12.3c0.7-1.8-0.8-1.8,1.7-5.5c1.2-1.8,2.1-3.4,2.1-6.3c0.1-3-1.3-5.9-3.5-7.7C20.6,1.3,18.4,0.6,16,0.6z"
		/>
</g>
</svg>
