<?xml version="1.0" encoding="utf-8"?>
<!-- Generator: Adobe Illustrator 27.9.0, SVG Export Plug-In . SVG Version: 6.00 Build 0)  -->
<svg version="1.1" id="Capa_1" xmlns="http://www.w3.org/2000/svg" xmlns:xlink="http://www.w3.org/1999/xlink" x="0px" y="0px"
	 viewBox="0 0 32 32" style="enable-background:new 0 0 32 32;" xml:space="preserve">
<style type="text/css">
	.st0{fill-rule:evenodd;clip-rule:evenodd;fill:#261103;}
</style>
<g>
	<path class="st0" d="M12.3,0.6C8.7,0.6,8.8,6,12.4,6h7.3c3.6,0,3.7-5.4,0-5.4H12.3C12.4,0.6,12.4,0.6,12.3,0.6z"/>
	<path class="st0" d="M12.5,7.8c-0.6,0-0.7,0-0.9,0.1v3.8c-0.2,0.3-0.7,1.2-2.3,3.4h13.7c-1.6-2.3-2.1-3.2-2.3-3.5V7.9h-1
		C15.1,7.9,13.3,7.8,12.5,7.8z"/>
	<path class="st0" d="M13.2,20.5c-1.1,0-1.8,0.8-1.8,1.8c0,0.9,0.8,1.8,1.8,1.8c1,0,1.8-0.8,1.8-1.8C15,21.3,14.2,20.5,13.2,20.5z"
		/>
	<path class="st0" d="M21.5,24.1c-0.6,0-1,0.4-1,1c0,0.5,0.4,0.9,1,0.9c0.5,0,0.9-0.4,0.9-0.9C22.4,24.5,21.9,24.1,21.5,24.1z"/>
	<path class="st0" d="M13.2,18.6c2,0,3.7,1.7,3.7,3.7c0,2.1-1.6,3.7-3.7,3.7c-2,0-3.7-1.7-3.7-3.7C9.6,20.3,11.2,18.6,13.2,18.6z
		 M21.5,22.3c1.4,0,2.7,1.3,2.7,2.8c0,1.4-1.3,2.7-2.7,2.7c-1.5,0-2.8-1.3-2.8-2.7C18.8,23.6,20,22.3,21.5,22.3z M7.9,16.9
		c-1.3,1.8-2.9,4.2-5.1,7.4c-2.1,3,0.1,7.1,3.8,7.1h18.8c3.8,0,5.9-4.1,3.8-7.1c-2.2-3.3-3.8-5.6-5.1-7.4H7.9z"/>
</g>
</svg>
