<?xml version="1.0" encoding="utf-8"?>
<!-- Generator: Adobe Illustrator 27.9.0, SVG Export Plug-In . SVG Version: 6.00 Build 0)  -->
<svg version="1.1" id="Capa_1" xmlns="http://www.w3.org/2000/svg" xmlns:xlink="http://www.w3.org/1999/xlink" x="0px" y="0px"
	 viewBox="0 0 32 32" style="enable-background:new 0 0 32 32;" xml:space="preserve">
<style type="text/css">
	.st0{fill-rule:evenodd;clip-rule:evenodd;fill:#261103;}
</style>
<g>
	<path class="st0" d="M1.5,0.6C1,0.6,0.6,1,0.6,1.6v28.8c0,0.6,0.5,1.1,0.9,1.1h28.9c0.5,0,1-0.5,1-1.1c-0.1-0.5-0.5-0.9-1-0.9H2.6
		V1.6C2.6,0.9,2.1,0.6,1.5,0.6z"/>
	<path class="st0" d="M28.3,9.3c-1.6,0-2.9,1.3-2.9,3c0,0.5,0.1,0.8,0.2,1.2l-4,4.1c-0.4-0.2-0.8-0.3-1.2-0.3
		c-0.4,0-0.9,0.1-1.3,0.3l-2-2.1c0.2-0.4,0.3-0.8,0.3-1.2c0-1.6-1.4-3-3-3c-1.6,0-3,1.4-3,3c0,0.5,0.2,0.8,0.3,1.2l-2.7,2.7
		C8.7,18,8.3,18,7.9,18c-1.6,0-3,1.3-3,2.9c0,1.7,1.4,3,3,3c1.6,0,3-1.3,3-3c0-0.5-0.2-0.8-0.3-1.2l2.7-2.7c0.4,0.2,0.8,0.3,1.2,0.3
		c0.4,0,0.8-0.2,1.2-0.3l2.1,2c-0.2,0.4-0.3,0.9-0.3,1.3c0,1.6,1.3,2.9,3,2.9c1.6,0,2.9-1.3,2.9-2.9c0-0.5-0.1-0.9-0.2-1.3l4-4
		c0.4,0.2,0.8,0.3,1.2,0.3c1.7,0,3.1-1.4,3.1-3C31.4,10.6,30,9.3,28.3,9.3z"/>
</g>
</svg>
