<?xml version="1.0" encoding="utf-8"?>
<!-- Generator: Adobe Illustrator 28.0.0, SVG Export Plug-In . SVG Version: 6.00 Build 0)  -->
<svg version="1.1" id="Capa_1" xmlns="http://www.w3.org/2000/svg" xmlns:xlink="http://www.w3.org/1999/xlink" x="0px" y="0px"
	 viewBox="0 0 400 300" style="enable-background:new 0 0 400 300;" xml:space="preserve">
<style type="text/css">
	.st0{fill:#231001;}
	.st1{fill:#FBC300;}
	.st2{fill:#FFFFFF;}
</style>
<g>
	<g>
		<path class="st0" d="M167.9,169.1c-3.9,0-7.2-0.6-10-1.9s-4.9-3.1-6.4-5.6c-1.4-2.5-2.2-5.5-2.2-9.3v-2.5h8v3c0,3.1,0.9,5.4,2.7,7
			c1.8,1.6,4.4,2.4,7.8,2.4c3.4,0,6.1-1.1,7.9-3.3c1.8-2.2,2.7-5.5,2.7-9.8V110h8v38.6c0,4.6-0.7,8.4-2.2,11.4
			c-1.5,3.1-3.6,5.3-6.4,6.8S171.9,169.2,167.9,169.1L167.9,169.1z"/>
		<path class="st0" d="M199.6,115.2v-8.3h7.5v8.3H199.6z M199.6,168.1v-44.6h7.5v44.6H199.6z"/>
		<path class="st0" d="M218.7,168.1v-44.6h6l0.7,7.4h0.6c0.5-1.4,1.1-2.7,1.9-4c0.8-1.3,1.9-2.3,3.2-3.1c1.4-0.8,3-1.2,5-1.2
			c0.8,0,1.6,0.1,2.3,0.2s1.2,0.3,1.6,0.5v6.9h-2.8c-1.9,0-3.6,0.3-5,1c-1.4,0.6-2.5,1.6-3.4,2.7c-0.9,1.2-1.6,2.6-2,4.2
			c-0.4,1.6-0.6,3.4-0.6,5.3v24.8L218.7,168.1L218.7,168.1z"/>
		<path class="st0" d="M257.2,169.1c-1.6,0-3.3-0.2-4.9-0.6c-1.6-0.4-3.2-1-4.6-2c-1.4-0.9-2.5-2.2-3.4-3.8
			c-0.8-1.6-1.3-3.6-1.3-6.1c0-3.1,0.7-5.6,2.2-7.5c1.5-2,3.5-3.5,6.1-4.6c2.6-1.1,5.8-1.9,9.4-2.3c3.6-0.4,7.5-0.6,11.8-0.6v-5.1
			c0-1.6-0.3-3.1-0.8-4.2c-0.6-1.2-1.6-2.1-3-2.7c-1.4-0.6-3.5-1-6.1-1c-2.7,0-4.6,0.3-6.1,1c-1.5,0.6-2.5,1.5-3.1,2.5
			c-0.6,1-0.9,2.1-0.9,3.4v1.3h-7.2c-0.1-0.3-0.1-0.6-0.1-0.8v-1c0-2.7,0.7-5,2.2-6.8c1.5-1.8,3.6-3.2,6.3-4.2s5.8-1.4,9.3-1.4
			c3.7,0,6.9,0.5,9.4,1.6c2.5,1.1,4.4,2.6,5.7,4.6c1.3,2,1.9,4.3,1.9,7.1V160c0,1.1,0.3,1.8,0.8,2.2c0.5,0.4,1.1,0.6,1.9,0.6h3.3
			v4.9c-0.8,0.3-1.7,0.6-2.6,0.9c-1,0.3-2.1,0.4-3.3,0.4c-1.5,0-2.7-0.3-3.6-0.9c-1-0.6-1.7-1.4-2.2-2.5c-0.5-1-0.8-2.2-1-3.5h-0.6
			c-1,1.4-2.3,2.6-3.9,3.7c-1.6,1.1-3.3,1.8-5.2,2.4C261.5,168.9,259.4,169.1,257.2,169.1L257.2,169.1z M259,162.9
			c1.8,0,3.5-0.3,5.1-0.8c1.6-0.6,3-1.4,4.3-2.4c1.2-1.1,2.2-2.3,3-3.8c0.7-1.5,1.1-3.1,1.1-4.8v-3.7c-4.6,0-8.5,0.3-11.7,0.8
			s-5.7,1.4-7.4,2.7c-1.7,1.3-2.6,3.1-2.6,5.5c0,1.5,0.3,2.8,1,3.7c0.7,1,1.6,1.7,2.9,2.2C255.9,162.6,257.4,162.9,259,162.9
			L259,162.9z"/>
		<path class="st0" d="M293.9,168.1v-38.3h-6.6v-6.3h6.6v-7.1c0-1.7,0.3-3.4,0.8-5c0.5-1.6,1.5-2.8,2.9-3.8s3.4-1.5,5.9-1.5
			c0.8,0,1.6,0,2.3,0.1c0.8,0.1,1.5,0.2,2.2,0.3c0.7,0.1,1.3,0.3,1.9,0.5v5.3h-4.5c-1.4,0-2.4,0.4-3.1,1.1s-1,1.7-1,3v7h8.6v6.3
			h-8.6v38.3H293.9L293.9,168.1z"/>
		<path class="st0" d="M326.6,169.1c-1.6,0-3.3-0.2-4.9-0.6c-1.6-0.4-3.2-1-4.6-2c-1.4-0.9-2.5-2.2-3.4-3.8
			c-0.8-1.6-1.3-3.6-1.3-6.1c0-3.1,0.7-5.6,2.2-7.5s3.5-3.5,6.1-4.6c2.6-1.1,5.8-1.9,9.4-2.3c3.6-0.4,7.5-0.6,11.8-0.6v-5.1
			c0-1.6-0.3-3.1-0.8-4.2c-0.6-1.2-1.6-2.1-3-2.7c-1.4-0.6-3.5-1-6.1-1c-2.7,0-4.6,0.3-6.1,1c-1.5,0.6-2.5,1.5-3.1,2.5
			c-0.6,1-0.9,2.1-0.9,3.4v1.3h-7.2c-0.1-0.3-0.1-0.6-0.1-0.8v-1c0-2.7,0.7-5,2.2-6.8c1.5-1.8,3.6-3.2,6.3-4.2s5.8-1.4,9.3-1.4
			c3.7,0,6.9,0.5,9.4,1.6s4.4,2.6,5.7,4.6c1.3,2,1.9,4.3,1.9,7.1V160c0,1.1,0.3,1.8,0.8,2.2c0.5,0.4,1.1,0.6,1.9,0.6h3.3v4.9
			c-0.8,0.3-1.7,0.6-2.6,0.9c-1,0.3-2.1,0.4-3.3,0.4c-1.5,0-2.7-0.3-3.6-0.9c-1-0.6-1.7-1.4-2.2-2.5c-0.5-1-0.8-2.2-1-3.5H342
			c-1,1.4-2.3,2.6-3.9,3.7c-1.6,1.1-3.3,1.8-5.2,2.4C331,168.9,328.9,169.1,326.6,169.1L326.6,169.1z M328.5,162.9
			c1.8,0,3.5-0.3,5.1-0.8c1.6-0.6,3-1.4,4.3-2.4c1.2-1.1,2.2-2.3,3-3.8c0.7-1.5,1.1-3.1,1.1-4.8v-3.7c-4.6,0-8.5,0.3-11.7,0.8
			s-5.7,1.4-7.4,2.7c-1.7,1.3-2.6,3.1-2.6,5.5c0,1.5,0.3,2.8,1,3.7c0.7,1,1.6,1.7,2.9,2.2C325.4,162.6,326.9,162.9,328.5,162.9
			L328.5,162.9z"/>
	</g>
	<g>
		<path class="st0" d="M295.7,204.5v-27.1h3.8v23.8h13.5v3.3H295.7L295.7,204.5z"/>
		<path class="st0" d="M321.4,205c-0.8,0-1.5-0.1-2.3-0.3c-0.8-0.2-1.5-0.5-2.1-0.9c-0.7-0.4-1.2-1-1.6-1.8
			c-0.4-0.7-0.6-1.7-0.6-2.8c0-1.4,0.3-2.6,1-3.5c0.7-0.9,1.6-1.6,2.9-2.2c1.2-0.5,2.7-0.9,4.4-1.1c1.7-0.2,3.5-0.3,5.5-0.3v-2.4
			c0-0.8-0.1-1.4-0.4-2c-0.3-0.6-0.7-1-1.4-1.3c-0.7-0.3-1.6-0.5-2.9-0.5c-1.2,0-2.1,0.2-2.8,0.5s-1.2,0.7-1.5,1.2s-0.4,1-0.4,1.6
			v0.6h-3.4c0-0.1,0-0.3,0-0.4v-0.5c0-1.3,0.4-2.3,1.1-3.2c0.7-0.8,1.7-1.5,2.9-1.9c1.3-0.4,2.7-0.6,4.3-0.6c1.7,0,3.2,0.3,4.4,0.7
			c1.2,0.5,2.1,1.2,2.6,2.1c0.6,0.9,0.9,2,0.9,3.3v11.3c0,0.5,0.1,0.8,0.4,1.1c0.2,0.2,0.5,0.3,0.9,0.3h1.5v2.3
			c-0.4,0.2-0.8,0.3-1.2,0.4c-0.4,0.1-1,0.2-1.5,0.2c-0.7,0-1.3-0.1-1.7-0.4s-0.8-0.7-1-1.1c-0.2-0.5-0.4-1-0.5-1.6h-0.3
			c-0.5,0.7-1.1,1.2-1.8,1.7c-0.7,0.5-1.5,0.9-2.4,1.1C323.4,204.9,322.4,205.1,321.4,205L321.4,205z M322.3,202.1
			c0.8,0,1.6-0.1,2.4-0.4c0.7-0.3,1.4-0.6,2-1.1c0.6-0.5,1-1.1,1.4-1.8c0.3-0.7,0.5-1.4,0.5-2.3v-1.7c-2.1,0-4,0.1-5.4,0.4
			c-1.5,0.2-2.6,0.7-3.5,1.3c-0.8,0.6-1.2,1.5-1.2,2.6c0,0.7,0.2,1.3,0.5,1.7c0.3,0.4,0.8,0.8,1.3,1
			C320.8,202,321.5,202.1,322.3,202.1L322.3,202.1z"/>
		<path class="st0" d="M347.6,205c-1.4,0-2.6-0.3-3.8-0.8c-1.1-0.6-2-1.4-2.7-2.6h-0.3l-0.4,3h-2.8V176h3.5v10.4h0.2
			c0.5-0.7,1-1.3,1.7-1.8c0.6-0.4,1.3-0.8,2.1-1c0.8-0.2,1.6-0.3,2.5-0.3c1.6,0,3,0.4,4.2,1.1c1.2,0.8,2.2,1.9,2.8,3.5
			c0.7,1.6,1,3.6,1,6c0,2.6-0.3,4.7-1,6.3c-0.7,1.6-1.6,2.8-2.8,3.6C350.8,204.6,349.4,205,347.6,205L347.6,205z M346.8,202
			c1.2,0,2.2-0.2,3-0.7s1.4-1.3,1.8-2.4c0.4-1.1,0.6-2.5,0.6-4.3v-0.8c0-1.7-0.2-3.2-0.6-4.2c-0.4-1.1-1-1.9-1.8-2.4
			c-0.8-0.5-1.9-0.8-3.2-0.8c-0.7,0-1.4,0.1-2.1,0.4s-1.2,0.6-1.8,1.2c-0.5,0.6-0.9,1.4-1.2,2.3s-0.4,2.2-0.4,3.6v0.6
			c0,1.6,0.2,3,0.6,4.1c0.4,1.1,1,2,1.8,2.5S345.5,202,346.8,202L346.8,202z"/>
	</g>
</g>
<path class="st1" d="M99.3,165.5V75.6c2.7-3.4,4.1-7.8,4.2-12.2c0.9-1.5,2-3.1,2.2-4.9c0.1-1.2-0.1-2.3-0.1-3.5
	c-0.1-1.8,0.2-3.6,0.8-5.3c0.5-0.3,0.7-1,1-1.5c1-1.5,2.1-3.1,3.1-4.6c0.2-0.2,0.3-0.5,0.4-0.8c0-0.4-0.3-0.8-0.6-1.1
	c-0.4-0.2-1-0.3-1.4-0.4c3.7,0.1,7.2-2.1,9.4-5.1c2.1-3,3.1-6.8,3.4-10.5c0.1-0.6,0.1-1.3-0.4-1.8c-0.5-0.6-1.4-0.5-2.1-0.4
	c-1.2,0.3-2.4,0.1-3.7,0.2c-1.7,0.1-3.5,0.2-5,0.9c-1.5,0.8-3.2,2.2-2.9,3.9c0-1.6-0.7-2.7-1.7-3.9c0.3-2.1,0.6-4.1,0.4-6.2
	c-0.1-2.1-0.7-4.2-2-5.8c-1.2-1.6-2.8-2.3-4.7-2.6c-1.8-0.3-2.7,0.7-3.2,2.5c-0.6,2.5-0.4,5.2,0.8,7.6c0.2,0.4,0.4,0.9,0.2,1.3
	c-0.2,0.4-0.7,0.4-1.1,0.6c-0.9,0.4-1.2,1.4-1.6,2.3c-0.7,1.6-1.7,2.3-3.4,1.6c-0.9-0.4-1.7-0.7-2.6-1.1c-0.4-0.2-0.9-0.4-1.2-0.7
	c-0.5-0.5-0.6-1.3-0.6-2c0.1-2.3-0.2-4.5-0.4-6.8c-0.1-1.7-0.4-3.7-1.9-4.7c-1.2-0.8-3-0.5-4.1,0.4c-1.2,0.9-1.8,2.3-2.3,3.7
	c-1.3,4.1-0.7,8.8,0,13.1c-4.2-1.7-8.6-2.8-13.1-3.2c-0.8-0.1-1.7-0.1-2.3,0.5c-0.7,0.7-0.7,1.8-0.5,2.8c1.2,6.3,4.8,12.5,10.5,15.3
	c1,0.5,2.2,0.9,3,1.7c0.8,0.8,1.1,1.9,1.6,2.9c0.5,1,1.2,2.8,2.2,3.1c-0.5,4.8,0.2,10,2.8,14.1c-0.2,1.1,0.2,8.9,0,10v90.4
	c-26.3,4-46.5,26.8-46.5,54.3c0,30.3,24.6,54.9,54.9,54.9s54.9-24.6,54.9-54.9C145.8,192.3,125.6,169.5,99.3,165.5L99.3,165.5z"/>
<path class="st0" d="M91.4,291.2h-0.6h-2.7v-0.1c-1.5-0.1-3-0.2-4.4-0.3c-18.2-1.8-34.7-11.2-46.5-26.3
	c-11.1-14.2-16.8-32.1-15.7-49.2c0.9-12.9,5.8-26.1,13.7-37c7.5-10.4,17.4-18.3,28.5-23.1l0.3-36L64.4,99c-0.7-0.4-2.1-1-3-1.4
	c-3.1-1.3-8.4-3.4-9.1-9c-0.7-5.8,2.6-10.6,8.3-12.1c1.2-0.3,2.6-0.3,3.8-0.3h0.7l13.7,0v4.4H64.3c-0.9,0-2-0.1-2.6,0.1
	c-3.5,0.9-5.5,3.8-5,7.3c0.4,2.9,3,4.2,6.4,5.6c2.5,1,4.9,2,5.6,3.9l0.1,0.4l-0.4,21.3l-0.3,38.9l-1.4,0.5
	c-10.9,4.4-20.6,12.1-28,22.2c-7.5,10.3-12.1,22.7-12.9,34.8c-1.1,16,4.3,32.9,14.7,46.2c11.1,14.1,26.5,22.9,43.5,24.6
	c2,0.2,4.1,0.3,6.3,0.4H91h0.3c2.3-0.1,4.3-0.2,6.3-0.4c17-1.7,32.4-10.5,43.5-24.6c10.5-13.4,15.8-30.2,14.7-46.2
	c-0.8-12.1-5.4-24.5-12.9-34.8c-7.4-10.1-17-17.8-28-22.2l-1.4-0.5l-0.3-38.9L113,97.9l0.1-0.4c0.7-1.9,3.1-2.9,5.6-3.9
	c3.4-1.4,6.1-2.7,6.4-5.6c0.5-3.5-1.5-6.4-5-7.3c-0.6-0.2-1.7-0.2-2.6-0.1h-0.7l-13.7,0v-4.4h14.4c1.2,0,2.6-0.1,3.8,0.2
	c5.7,1.5,9,6.3,8.3,12.1c-0.7,5.7-6,7.8-9.1,9c-0.8,0.3-2.3,0.9-3,1.4l0.3,20.1l0.3,36c11.1,4.8,21,12.8,28.5,23.1
	c8,11,12.9,24.1,13.7,37c1.2,17.1-4.5,35-15.6,49.2c-11.8,15.1-28.3,24.4-46.5,26.3c-1.4,0.1-2.9,0.3-4.4,0.3v0.1L91.4,291.2
	L91.4,291.2z"/>
<g>
	<circle class="st2" cx="63.2" cy="237.5" r="11.8"/>
	<path class="st2" d="M82.5,249.9c0-3.7,3-6.6,6.6-6.6s6.6,3,6.6,6.6c0,3.7-3,6.6-6.6,6.6S82.5,253.6,82.5,249.9z"/>
	<path class="st2" d="M74.9,218c0-4.2,3.4-7.5,7.5-7.5c4.2,0,7.5,3.4,7.5,7.5s-3.4,7.5-7.5,7.5C78.3,225.5,74.9,222.2,74.9,218z"/>
</g>
<polygon class="st0" points="380,283 149.4,283 149.4,279 376,279 376,32.2 133.5,32.2 133.5,28.2 380,28.2 "/>
</svg>
